<svg xmlns="http://www.w3.org/2000/svg" viewBox="0 0 663.63 339.93">
  <g fill="#DC2626">
    <path d="M0,54.23v-28.31C0,5.67,6.71.09,28.48,0c22.44-.09,30.71,5.96,30.71,28.16v2.63l-26.52-.65v-4.13c0-3.55-.72-4.95-3.6-5.03s-4.27,1.24-4.27,5.09v32.05c0,3.85,1.42,5.34,4.27,5.61,3.6.34,4.93-.91,4.93-4.82v-2.3l-4.93-.41v-17.9l30.64,1.69c-.13,5.84-.13,9.43-.13,19.22,0,22.21-7.89,27.31-31.11,24.39C6.71,80.88,0,74.48,0,54.23Z"/>
    <path d="M126.35,1.17c3.02,21.34,10.75,72.39,14.51,94.95l-37.05-4.57-.89-11.93-11.1-1.19-.86,11.53-31.38-3.87c3.16-19.52,9.7-65.18,12.4-84.8l54.36-.11ZM93.26,56.52l7.88.6-.44-5.86c-.59-8.65-1.47-17.92-2.2-26.54l-2.77-.09c-.73,8.65-1.45,17.91-2.03,26.53l-.43,5.36Z"/>
    <path d="M145.32,17.55c0-6.59,0-11.71-.17-16.42l45.26-.09c35.04-.07,48.88,9.12,48.88,33.76v8.01c0,14.51-4.59,23.09-17.07,26.61,2.43,3.91,4.46,8.25,6.71,12.93,4.32,9.26,9.11,18.97,12.68,26.21l-45.18-5.58c-1.7-4.08-3.96-10.2-6.39-16.32l-4.26-11.07-3.12-.28v7.62c0,7.48,0,12.99.18,18.37l-37.68-4.65c.17-4.96.17-10.47.17-17.47V17.55ZM182.65,25.9v24.84s6.46.39,6.46.39c4.49.27,6.75-1.32,6.75-6.19v-12.05c0-4.88-2.26-6.67-6.75-6.8l-6.46-.19Z"/>
    <path d="M352.38.72c5.14,27.86,18.37,94.83,24.83,124.58l-62.83-7.76-1.49-15.45-18.44-1.97-1.42,14.79-51.23-6.33c5.1-24.69,15.69-82.66,20.09-107.68l90.49-.18ZM296.84,71.98l13.09.99-.74-7.58c-.98-11.17-2.45-23.16-3.67-34.29l-4.61-.14c-1.2,11.13-2.41,23.04-3.36,34.13l-.72,6.89Z"/>
    <path d="M384.91,103.79V21.89c0-8.49,0-14.86-.29-21.23l112.48-.22,6.08,37.17c2.52,16.33,4.33,34.88,5.41,51.84,1.09-17.03,2.55-35.46,5.1-51.92l5.89-37.15,138.18-.27c-.47,8.1-.47,16.43-.47,27.45v103.29c0,11.7,0,20.48.47,29.09l-90.38-11.16v-21.96c0-14.22,2.01-52.37,3.22-83.76l-4.03-.14c-4.4,20.26-9.55,43.42-14.66,62.87l-10.09,39.83-74.49-9.2-8.35-39.22c-3.96-18.33-8.22-39.75-12.13-58.36l-4.2-.14c1.29,26.65,2.58,59.73,2.58,75.3v19.69l-60.63-7.49c.29-6.69.29-13.41.29-22.43Z"/>
    <path d="M.62,213.81v-102.76c0-10.65,0-18.64-.46-26.7l141.42,19.31,5.97,37.3c2.44,16.12,4.17,34.25,5.21,50.73,1.03-16.54,2.41-34.36,4.82-50.1l5.45-35,101.43,13.85c-.27,6.15-.27,12.52-.27,20.94v78.93c0,8.94,0,15.65.27,22.18l-61.12-.12v-19.27c0-12.48,1.56-45.95,2.49-73.34l-3.12-.3c-3.45,17.72-7.56,38.31-11.7,55.91l-8.39,36.97-72.34-.14-9.46-40.81c-4.6-19.55-9.63-42.77-14.31-63.3l-5.12-.5c1.58,29.45,3.16,65.83,3.16,82.93v21.63l-84.38-.16c.46-8.43.46-16.87.46-28.19Z"/>
    <path d="M381.39,136.4c3.93,24.68,13.69,81.92,18.28,106.36l-50.06-.09-1.35-14.51-17.52-.34-1.41,14.82-57.8-.11c6.43-28.1,19.27-91.44,24.4-117.78l85.46,11.67ZM333.08,199.88l12.45.66-.68-7.24c-.91-10.72-2.28-22.29-3.43-33.09l-4.38-.44c-1.16,10.81-2.32,22.44-3.26,33.33l-.7,6.79Z"/>
    <path d="M400.05,212.64v-2.78l40.91,1.27v4.15c0,3.74,1.77,5.32,6.52,5.47s6.23-1.29,6.23-4.83-2.06-5.54-21.37-13.03c-25.4-9.83-31.48-16.07-31.48-34.62,0-22.64,12.83-28.9,44.18-24.56,34.8,4.82,40.64,12.38,40.64,32.92v2.21l-35.93-2.88v-4.51c0-3.01-1.39-4.25-4.19-4.55s-4.06.67-4.06,3.72v.14c0,4.43,2.12,5.87,19.68,13.29,22.29,9.32,27.76,15.03,27.76,32.23,0,21.99-8.96,27.94-39.89,27.94-39.59,0-48.99-6.73-48.99-31.58Z"/>
    <path d="M554.67,160.05c2.4,19.19,8.37,63.87,11.19,83.02l-30.39-.06-.81-11.23-10.43-.2-.84,11.41-33.69-.06c3.69-21.33,11.11-69.63,14.09-89.82l50.87,6.94ZM525.63,210.07l7.41.39-.41-5.59c-.54-8.27-1.36-17.19-2.04-25.51l-2.61-.26c-.69,8.35-1.38,17.34-1.94,25.74l-.42,5.24Z"/>
    <path d="M569.02,243.08c.12-5.71.12-11.76.12-20.89v-46.69c0-5.36,0-9.47-.12-13.49l25.02,3.41c-.11,4.03-.11,8.08-.11,13.56v43.23l6.04.23c3.24.12,5.49.21,10.57.3v20.41l-41.51-.08Z"/>
    <path d="M655.78,173.86c1.68,16.01,5.86,53.36,7.85,69.4l-21.19-.04-.56-9.33-7.19-.14-.58,9.46-22.95-.04c2.5-17.54,7.53-57.39,9.55-74.09l35.07,4.79ZM635.64,215.89l5.11.27-.28-4.64c-.38-6.87-.94-14.27-1.41-21.17l-1.8-.18c-.48,6.94-.95,14.41-1.33,21.38l-.29,4.35Z"/>
    <path d="M.4,268.42c0-5.56,0-9.95-.12-13.97h29.48c22.97,0,30.19,5.92,30.19,27.94v28.18c0,22.02-7.22,27.94-30.19,27.94H.28c.12-5.8.12-11.96.12-21.31v-48.78ZM25.74,276.23v40.49h4.03c2.84,0,4.26-1.42,4.26-5.45v-29.6c0-4.03-1.42-5.45-4.26-5.45h-4.03Z"/>
    <path d="M114.77,254.45c2.25,19.18,7.93,64.41,10.66,84.06h-28.06l-.71-11.01h-9l-.71,11.01h-27.11c2.84-19.65,8.64-64.88,11.01-84.06h43.93ZM88.84,306.66h6.39l-.36-5.45c-.47-8.05-1.18-16.69-1.78-24.74h-2.25c-.59,8.17-1.18,16.93-1.66,25.1l-.36,5.09Z"/>
    <path d="M133.36,277.06h-14.33v-22.61h53.75v22.61h-14.09v46.06c0,6.27,0,10.77.12,15.39h-25.57c.12-4.5.12-9.24.12-15.39v-46.06Z"/>
    <path d="M177.17,268.89c0-5.8,0-10.18-.12-14.44h25.57c-.12,4.26-.12,8.64-.12,14.44v54.23c0,6.27,0,10.77.12,15.39h-25.57c.12-4.5.12-9.24.12-15.39v-54.23Z"/>
    <path d="M209.37,323.12v-54.46c0-5.68,0-9.71-.12-14.21h31.61l3.43,20.48c1.78,10.89,3.67,22.85,4.97,32.2-.12-10.89-.36-25.93-.36-33.15v-19.54h20.72c-.12,4.5-.12,8.29-.12,14.21v54.46c0,4.74,0,9.59.12,15.39h-32.32l-2.96-18.35c-1.54-9.12-3.2-19.18-4.62-28.3.12,11.01.24,22.02.24,27.11v19.54h-20.72c.12-4.74.12-9,.12-15.39Z"/>
    <path d="M274.85,311.87v-30.78c0-22.02,7.22-28.06,29.6-28.06s29.13,6.04,29.13,28.06v2.6l-24.98.47v-4.26c0-3.67-.71-5.09-3.55-5.09s-4.26,1.42-4.26,5.45v33.51c0,4.03,1.42,5.45,4.26,5.45,3.55,0,4.85-1.42,4.85-5.45v-2.37h-4.85v-18.59h29.01c-.12,5.8-.12,9.35-.12,19.06,0,22.02-7.22,28.06-29.48,28.06s-29.6-6.04-29.6-28.06Z"/>
    <path d="M366.01,314.12v-2.25l25.81-.47v3.55c0,3.2,1.18,4.5,4.38,4.5s4.26-1.3,4.26-4.38-1.42-4.74-14.33-10.3c-15.98-6.87-19.65-11.6-19.65-26.64,0-18.35,7.81-24.86,28.06-24.86,24.63,0,29.01,6.16,29.01,24.86v2.01l-25.81.47v-3.91c0-2.6-.95-3.55-2.84-3.55s-2.72.95-2.72,3.55v.12c0,3.79,1.42,4.85,13.5,9.95,16.22,6.75,20.36,11.6,20.36,27.35,0,20.13-6.75,25.57-28.77,25.57-25.57,0-31.26-5.45-31.26-25.57Z"/>
    <path d="M430.9,323.12v-54.23c0-5.8,0-10.18-.12-14.44h25.57c-.12,4.26-.12,8.64-.12,14.44v15.51h8.05v-15.51c0-5.8,0-10.18-.12-14.44h25.57c-.12,4.26-.12,8.64-.12,14.44v54.23c0,6.27,0,10.77.12,15.39h-25.57c.12-4.5.12-9.24.12-15.39v-16.93h-8.05v16.93c0,6.27,0,10.77.12,15.39h-25.57c.12-4.5.12-9.24.12-15.39Z"/>
    <path d="M494.95,311.87v-30.78c0-22.02,7.22-28.06,30.19-28.06s30.19,6.04,30.19,28.06v30.78c0,22.02-7.22,28.06-30.19,28.06s-30.19-6.04-30.19-28.06ZM529.4,312.34v-31.61c0-4.03-1.42-5.45-4.26-5.45s-4.26,1.42-4.26,5.45v31.61c0,4.03,1.42,5.45,4.26,5.45s4.26-1.42,4.26-5.45Z"/>
    <path d="M605.3,338.51h-39.31c-2.49-21.9-7.46-62.04-10.18-84.06h28.18l.95,29.84c.36,10.42.59,21.31,1.18,32.2h1.89c.95-10.77,1.89-21.55,2.72-31.85l2.61-30.19h33.62l2.84,29.48c.95,10.42,2.01,21.43,3.08,32.56h1.54c.47-11.13.71-22.26,1.07-32.8l.83-29.24h27.23c-2.84,22.02-8.17,62.04-10.89,84.06h-38.95l-1.54-22.61c-.59-9.83-1.3-22.26-2.25-35.28-.95,13.02-1.89,25.46-2.72,35.4l-1.89,22.5Z"/>
  </g>
</svg>
